<?xml version="1.0" encoding="utf-8"?>
<!-- Generator: Adobe Illustrator 24.0.1, SVG Export Plug-In . SVG Version: 6.00 Build 0)  -->
<svg version="1.1" id="Layer_1" xmlns="http://www.w3.org/2000/svg" xmlns:xlink="http://www.w3.org/1999/xlink" x="0px" y="0px"
	 viewBox="0 0 1366 471" style="enable-background:new 0 0 1366 471;" xml:space="preserve">
<style type="text/css">
	.st0{fill:#17DBFF;stroke:#17DBFF;stroke-width:13;stroke-miterlimit:10;}
	.st1{fill:#001FA2;stroke:#001FA2;stroke-width:13;stroke-miterlimit:10;}
	.st2{font-family:'MyriadPro-Regular';}
	.st3{font-size:405.2579px;}
</style>
<g>
	<path d="M136.27,411.79"/>
	<ellipse class="st0" cx="112.05" cy="348.72" rx="60.55" ry="63.07"/>
	<path class="st1" d="M396.82,379.29l-56.67,36.33c-11.51,7.38-26.6,3.64-33.68-8.35L139.53,124.8c-7.09-11.99-3.5-27.7,8.02-35.08
		l56.67-36.33c11.51-7.38,26.6-3.64,33.68,8.35L404.83,344.2C411.92,356.2,408.33,371.91,396.82,379.29z"/>
	<path class="st1" d="M612.11,379.29l-56.67,36.33c-11.51,7.38-26.6,3.64-33.68-8.35L354.83,124.8c-7.09-11.99-3.5-27.7,8.02-35.08
		l56.67-36.33c11.51-7.38,26.6-3.64,33.68,8.35L620.13,344.2C627.21,356.2,623.62,371.91,612.11,379.29z"/>
	<text transform="matrix(0.9053 0 0 1 646.7773 401.6865)" class="st2 st3">emo</text>
</g>
</svg>
